<svg width="32" height="29" viewBox="0 0 32 29" fill="none" xmlns="http://www.w3.org/2000/svg">
<path d="M17.9491 4.45857L17.9487 4.45904L16.7174 5.72779L15.9998 6.46728L15.2822 5.72779L14.0509 4.45904L14.0498 4.45786C11.2357 1.54851 6.73213 1.13664 3.75495 3.67349C0.27553 6.64347 0.0887227 11.9879 3.20563 15.2107L17.9491 4.45857ZM17.9491 4.45857C20.7699 1.54803 25.2676 1.137 28.2443 3.67324C31.7241 6.64322 31.9108 11.9877 28.7879 15.2105L28.7877 15.2107L16.6941 27.698C16.6941 27.6981 16.694 27.6981 16.6939 27.6982C16.3056 28.0987 15.6875 28.0987 15.2992 27.698L3.20605 15.2111L17.9491 4.45857Z" stroke="#B7C1C8" stroke-width="2"/>
</svg>
