<svg width="24" height="24" viewBox="0 0 24 24" fill="none" xmlns="http://www.w3.org/2000/svg">
<path d="M12.5 15.8621C12.199 15.8621 11.9468 15.7642 11.7435 15.5684C11.5395 15.3733 11.4375 15.1313 11.4375 14.8424V4.46698L10.4813 5.3847C10.2865 5.57165 10.0431 5.66512 9.75131 5.66512C9.45877 5.66512 9.20625 5.56315 8.99375 5.35921C8.79896 5.15527 8.70156 4.91292 8.70156 4.63217C8.70156 4.35209 8.79896 4.11858 8.99375 3.93163L11.7563 1.28042C11.8448 1.19544 11.9556 1.12746 12.0888 1.07648C12.2213 1.02549 12.3583 1 12.5 1C12.6417 1 12.7791 1.02549 12.9122 1.07648C13.0447 1.12746 13.1552 1.19544 13.2437 1.28042L16.0063 3.93163C16.2188 4.13557 16.325 4.382 16.325 4.67092C16.325 4.95983 16.2188 5.19776 16.0063 5.3847C15.7938 5.57165 15.5416 5.66512 15.2498 5.66512C14.9572 5.66512 14.7135 5.57165 14.5187 5.3847L13.5625 4.46698V14.8424C13.5625 15.1313 13.4609 15.3733 13.2576 15.5684C13.0536 15.7642 12.801 15.8621 12.5 15.8621ZM6.125 23C5.54062 23 5.04054 22.8005 4.62475 22.4014C4.20825 22.0017 4 21.5214 4 20.9606V9.74392C4 9.18308 4.20825 8.7028 4.62475 8.30308C5.04054 7.90404 5.54062 7.70452 6.125 7.70452H8.25C8.55104 7.70452 8.80356 7.80207 9.00756 7.99717C9.21085 8.19295 9.3125 8.4353 9.3125 8.72422C9.3125 9.01313 9.21085 9.25514 9.00756 9.45024C8.80356 9.64602 8.55104 9.74392 8.25 9.74392H6.125V20.9606H18.875V9.74392H16.75C16.449 9.74392 16.1968 9.64602 15.9935 9.45024C15.7895 9.25514 15.6875 9.01313 15.6875 8.72422C15.6875 8.4353 15.7895 8.19295 15.9935 7.99717C16.1968 7.80207 16.449 7.70452 16.75 7.70452H18.875C19.4594 7.70452 19.9598 7.90404 20.3763 8.30308C20.7921 8.7028 21 9.18308 21 9.74392V20.9606C21 21.5214 20.7921 22.0017 20.3763 22.4014C19.9598 22.8005 19.4594 23 18.875 23H6.125Z" fill="#9AA9B2"/>
</svg>
